<svg xmlns="http://www.w3.org/2000/svg" viewBox="0 0 540.47 134.55"><defs><style>.a,.b{fill:#7b6e5e;}.a{stroke:#7b6e5e;stroke-linejoin:round;stroke-width:0.6px;}</style></defs><title>logo28.2</title><path class="a" d="M428,445.59c-2.32,0-4-.5-5-1.48s-1.51-2.86-1.51-5.61a52.88,52.88,0,0,1,.61-7.14q.61-4.35,2-12,2.44-14.1,3.86-24.42a84.43,84.43,0,0,0,.85-10.77c0-2.69-1-4-3.11-4-1.63,0-3.6.8-5.89,2.38a38.2,38.2,0,0,0-7.6,7.59,3.71,3.71,0,0,1-2.92,1.7,2.91,2.91,0,0,1-2.31-1.21,4.22,4.22,0,0,1-1-2.74,7.67,7.67,0,0,1,.61-2.91,16.3,16.3,0,0,1,2-3.37,34.86,34.86,0,0,1,10.09-9.29A21.72,21.72,0,0,1,429.88,369c3.46,0,6.11,1.05,8,3.14s2.78,5.15,2.78,9.16a41.28,41.28,0,0,1-.47,5.7q-.48,3.27-.85,5.34c-.25,1.38-.44,2.33-.57,2.87q5.38-14.62,12.07-20.42A22,22,0,0,1,465.53,369a12.07,12.07,0,0,1,9.66,4.13q3.54,4.13,3.54,11.67a40.66,40.66,0,0,1-.85,7.36q4.71-12.39,11-17.77A21.76,21.76,0,0,1,503.44,369q6.6,0,10.13,4t3.54,11.31a46.41,46.41,0,0,1-1.23,9.61l-5.75,25.67a38.21,38.21,0,0,0-.94,7.72q0,3.76,1.84,5.65a6.83,6.83,0,0,0,5.14,1.89,10.85,10.85,0,0,0,6.08-2,38.79,38.79,0,0,0,7-6.55,3.39,3.39,0,0,1,2.55-1.26,2.19,2.19,0,0,1,1.93,1.08,5.29,5.29,0,0,1,.71,3,8.23,8.23,0,0,1-1.79,5.57A36.14,36.14,0,0,1,523,443a21,21,0,0,1-10.09,2.6q-8,0-12.55-4.54t-4.52-12.16q0-5.29,2.26-15.35l3.77-16.42c.13-.54.35-1.5.66-2.87s.57-2.68.76-3.91a23.74,23.74,0,0,0,.28-3.63,7.39,7.39,0,0,0-1.27-4.72,4.43,4.43,0,0,0-3.63-1.57q-4.44,0-9.29,5.43t-9.24,18q-4.39,12.57-7.12,32.67-.66,5.39-2.32,7.23c-1.09,1.22-2.87,1.84-5.32,1.84q-3.21,0-4.67-1.44c-1-1-1.46-2.75-1.46-5.38a58.12,58.12,0,0,1,1-9.65q1-6,2.64-14.05,4.33-21.72,4.33-28c0-2.28-.45-3.95-1.36-5a5.07,5.07,0,0,0-4.11-1.62q-4.62,0-9.52,5t-9.57,17.69q-4.67,12.69-7.78,34.33-.66,4.57-1.94,6.37t-4.95,1.8Z" transform="translate(-396.45 -360.47)"/><path class="a" d="M539.18,397.39c-2.64,0-4.62-.59-5.94-1.75a6.17,6.17,0,0,1-2-4.9,6.51,6.51,0,0,1,2.59-5.25,9.94,9.94,0,0,1,6.46-2.11A9.24,9.24,0,0,1,546,385a5.38,5.38,0,0,1,2.16,4.58,7.12,7.12,0,0,1-2.45,5.7,9.64,9.64,0,0,1-6.5,2.11Zm-.76,48.2q-6.12,0-8.91-4.13t-2.78-10.95a64.23,64.23,0,0,1,1.08-10.37,94.22,94.22,0,0,1,2.78-11.8,5.81,5.81,0,0,1,6.79-5q4.82,0,4.81,3.05,0,2.25-1.79,10.41-2.26,9.89-2.26,13.38a9.14,9.14,0,0,0,.75,4.13,2.66,2.66,0,0,0,2.55,1.43c1.13,0,2.55-.74,4.24-2.24a82.48,82.48,0,0,0,6.79-7.09,3.39,3.39,0,0,1,2.55-1.26A2.19,2.19,0,0,1,557,426.2a5.38,5.38,0,0,1,.71,3,8,8,0,0,1-1.79,5.57q-9.35,10.86-17.45,10.86Z" transform="translate(-396.45 -360.47)"/><path class="a" d="M585.76,425.12a2.22,2.22,0,0,1,1.94,1.08,5.38,5.38,0,0,1,.7,3,8,8,0,0,1-1.79,5.57,39.93,39.93,0,0,1-8.82,7.81,19.59,19.59,0,0,1-10.79,3,13.19,13.19,0,0,1-12.31-7.18q-4-7.19-4-18.58a121.86,121.86,0,0,1,3-25,82.17,82.17,0,0,1,8.77-24.05q5.8-10.05,13.82-10.05a8.09,8.09,0,0,1,7.12,4q2.6,4,2.59,11.44,0,10.68-6.22,24.78a135.85,135.85,0,0,1-16.88,27.91,10.06,10.06,0,0,0,2.17,5.25,5.21,5.21,0,0,0,4,1.57,11.35,11.35,0,0,0,6.79-2.1,51.44,51.44,0,0,0,7.45-7.23A3.35,3.35,0,0,1,585.76,425.12Zm-11.6-55.47q-2.16,0-4.9,7.45a117.72,117.72,0,0,0-4.81,18.49,127.31,127.31,0,0,0-2.26,21.18,113.45,113.45,0,0,0,10.65-21,55.27,55.27,0,0,0,4-19.26c0-4.54-.88-6.82-2.64-6.82Z" transform="translate(-396.45 -360.47)"/><path class="a" d="M622.82,425.12a2.22,2.22,0,0,1,1.94,1.08,5.38,5.38,0,0,1,.7,3,8,8,0,0,1-1.79,5.57,34.45,34.45,0,0,1-9.85,7.45,28.5,28.5,0,0,1-13.63,3.41q-9.9,0-15.37-5.12t-5.47-14a24.93,24.93,0,0,1,2.73-11.53,21.69,21.69,0,0,1,7.6-8.49,19.8,19.8,0,0,1,11-3.14,12.27,12.27,0,0,1,8.77,3.1,10.94,10.94,0,0,1,3.3,8.39,14.15,14.15,0,0,1-4.67,10.64q-4.66,4.44-15.79,7,2.36,4.13,9,4.13a21.39,21.39,0,0,0,9.66-2.82,31.71,31.71,0,0,0,9.39-7.41,3.35,3.35,0,0,1,2.54-1.26Zm-23.76-13c-2.33,0-4.29,1.28-5.89,3.86a17.23,17.23,0,0,0-2.41,9.33v.18a21.92,21.92,0,0,0,8.77-3.77,7.29,7.29,0,0,0,3.21-5.83,3.79,3.79,0,0,0-1-2.74A3.55,3.55,0,0,0,599.06,412.11Z" transform="translate(-396.45 -360.47)"/><path class="a" d="M635.37,447.56q-4.9,0-7.5-2.15a6.24,6.24,0,0,1-2.59-4.85,5.37,5.37,0,0,1,1.79-4,7.4,7.4,0,0,1,5.28-1.7,21.57,21.57,0,0,1,2.87.22c1.1.15,1.94.25,2.5.31a11,11,0,0,0-1.08-4.39,21.59,21.59,0,0,0-2.5-4c-1-1.28-1.95-2.41-2.83-3.36a58,58,0,0,1-5.8,8.79,67.66,67.66,0,0,1-6.27,6.65,5.18,5.18,0,0,1-3.58,1.61,3.17,3.17,0,0,1-2.46-1,3.69,3.69,0,0,1-.94-2.56,5,5,0,0,1,1.32-3.32l1.23-1.44a118.37,118.37,0,0,0,7.82-10.05,56.56,56.56,0,0,0,3.45-6.19q1.74-3.6,4.57-9.79,1.8-3.94,7.45-3.95a10.34,10.34,0,0,1,3.68.45,1.51,1.51,0,0,1,1,1.44,6.33,6.33,0,0,1-.38,1.7,12.62,12.62,0,0,1-1,2.34,12.36,12.36,0,0,0-1.7,5.47,5.8,5.8,0,0,0,1,3,33.24,33.24,0,0,0,3.07,4,58.55,58.55,0,0,1,4.57,6.42,11.23,11.23,0,0,1,1.56,5.79,14.84,14.84,0,0,1-7,12.57,13.88,13.88,0,0,1-7.54,2.06Z" transform="translate(-396.45 -360.47)"/><path class="a" d="M706.28,445.86q-12.54,0-20.09-4.54t-7.54-13.86c0-3.29.6-5.81,1.79-7.54a6,6,0,0,1,5.28-2.61,6.52,6.52,0,0,1,4.15,1.26,3.94,3.94,0,0,1,1.61,3.23,15.19,15.19,0,0,1-.29,3.14,10.28,10.28,0,0,1-.14,1.26,12.69,12.69,0,0,0-.14,1.88c0,2.7,1.43,4.7,4.29,6s6.87,2,12,2q8,0,12.55-2.73a8.56,8.56,0,0,0,4.52-7.68,7.41,7.41,0,0,0-2.07-5.25,17.24,17.24,0,0,0-5.19-3.68q-3.1-1.49-8.77-3.63A102.29,102.29,0,0,1,696.43,408a24.31,24.31,0,0,1-7.83-6.6A16.34,16.34,0,0,1,685.35,391,19.11,19.11,0,0,1,689,379.53a23.28,23.28,0,0,1,10.46-7.81,42.41,42.41,0,0,1,16.08-2.79,39.71,39.71,0,0,1,12.64,1.93,20.59,20.59,0,0,1,9.19,5.88,14.22,14.22,0,0,1,3.45,9.7q0,5.65-1.8,8.52a5.82,5.82,0,0,1-5.28,2.88,6,6,0,0,1-4.1-1.44A4.38,4.38,0,0,1,728,393a16.08,16.08,0,0,1,.28-3.14c.19-1.8.29-2.94.29-3.41,0-2.52-1.29-4.43-3.87-5.75a21,21,0,0,0-9.62-2q-8.1,0-12.4,2.82a9,9,0,0,0-4.29,7.95,8.32,8.32,0,0,0,2.22,5.83,18.09,18.09,0,0,0,5.51,4q3.3,1.62,9.24,3.86a121.72,121.72,0,0,1,11.51,5,22.57,22.57,0,0,1,7.4,6.1,14.85,14.85,0,0,1,3.07,9.52q0,10.59-8.44,16.29t-22.59,5.7Z" transform="translate(-396.45 -360.47)"/><path class="a" d="M786.44,425.12a2.19,2.19,0,0,1,1.93,1.08,5.38,5.38,0,0,1,.71,3,8,8,0,0,1-1.79,5.57,39.7,39.7,0,0,1-8.87,7.81,20.16,20.16,0,0,1-11,3q-19.25,0-19.24-25.76c0-2.64.1-5.3.28-8h-3.67c-1.89,0-3.16-.33-3.82-1a4.28,4.28,0,0,1-1-3.14q0-5,4.24-5h5.38a83.6,83.6,0,0,1,4.9-18,40.37,40.37,0,0,1,8-13q4.66-4.86,10-4.85a7.16,7.16,0,0,1,6.23,3.32,14.56,14.56,0,0,1,2.26,8.35q0,13.91-12.26,24.23h10.56a3.07,3.07,0,0,1,2.17.63,3.2,3.2,0,0,1,.66,2.33q0,6.19-10.65,6.2H759.94q-.2,4.49-.19,7,0,9.33,2.31,13.1c1.54,2.52,4,3.77,7.31,3.77a11.62,11.62,0,0,0,7.17-2.33,56.69,56.69,0,0,0,7.35-7,3.39,3.39,0,0,1,2.55-1.26Zm-16.5-49.72q-1.43,0-3.16,3.36a45.65,45.65,0,0,0-3.3,9.34,118.61,118.61,0,0,0-2.6,13.24,31.05,31.05,0,0,0,8.35-10.28A24,24,0,0,0,772,380.69q0-5.29-2.07-5.29Z" transform="translate(-396.45 -360.47)"/><path class="a" d="M829.54,417.58a2.06,2.06,0,0,1,1.88,1.17,6,6,0,0,1,.66,3q0,4.31-2.73,5.12A45.19,45.19,0,0,1,816.9,429a22.16,22.16,0,0,1-7.07,12.07,17.89,17.89,0,0,1-12,4.54,17.44,17.44,0,0,1-9.67-2.6,16.81,16.81,0,0,1-6.08-6.92,21.25,21.25,0,0,1-2.07-9.33,26.33,26.33,0,0,1,2.73-12.16,20.7,20.7,0,0,1,7.54-8.35,19.67,19.67,0,0,1,10.66-3,15,15,0,0,1,11.55,4.71,19.65,19.65,0,0,1,5.14,11.63,59.69,59.69,0,0,0,10.57-1.8,5.75,5.75,0,0,1,1.32-.18ZM798.6,436.07a7,7,0,0,0,5.24-2.33,12.7,12.7,0,0,0,3-6.73,12.6,12.6,0,0,1-4.48-4.94,14,14,0,0,1-1.56-6.46,15.42,15.42,0,0,1,.28-2.87h-.47a7.5,7.5,0,0,0-6.27,3.45q-2.49,3.45-2.5,9.74c0,3.29.68,5.81,2,7.54A5.91,5.91,0,0,0,798.6,436.07Z" transform="translate(-396.45 -360.47)"/><path class="a" d="M830.67,445.59a5.14,5.14,0,0,1-5-3.59q-1.46-3.6-1.46-11.49a69.74,69.74,0,0,1,3.49-22.17,6.78,6.78,0,0,1,2.78-3.82,10.2,10.2,0,0,1,5.42-1.21,5.52,5.52,0,0,1,2.64.45,1.8,1.8,0,0,1,.76,1.7,32.38,32.38,0,0,1-1.42,6.47c-.63,2.39-1.13,4.49-1.5,6.28a60.46,60.46,0,0,0-1,6.64,50.41,50.41,0,0,1,7-12.56,26.85,26.85,0,0,1,7.59-6.91,14.29,14.29,0,0,1,6.84-2.07c4.08,0,6.13,1.95,6.13,5.84q0,3.5-2.08,12.65-1.79,7.81-1.79,10.32c0,2.4.91,3.59,2.74,3.59,1.25,0,2.75-.73,4.48-2.2a73.64,73.64,0,0,0,6.93-7.13,3.35,3.35,0,0,1,2.54-1.26,2.22,2.22,0,0,1,1.94,1.08,5.38,5.38,0,0,1,.7,3,8,8,0,0,1-1.79,5.57,41.13,41.13,0,0,1-8.72,7.81,19,19,0,0,1-10.61,3q-4.82,0-7.26-2.65c-1.64-1.77-2.45-4.32-2.45-7.67a53.49,53.49,0,0,1,1.32-9,44.85,44.85,0,0,0,1.22-7.81c0-1-.34-1.44-1-1.44s-2,1-3.45,3a48.29,48.29,0,0,0-4.52,7.94,59.92,59.92,0,0,0-3.73,10.42q-1,4.21-2.4,5.7a5.6,5.6,0,0,1-4.29,1.48Z" transform="translate(-396.45 -360.47)"/><path class="a" d="M904.51,427.82a2.19,2.19,0,0,1,1.93,1.07,5.38,5.38,0,0,1,.71,3,9.59,9.59,0,0,1-1.61,5.57,18,18,0,0,1-6.93,6,22.51,22.51,0,0,1-10.23,2.16q-9.06,0-14-5.16t-5-14a24.81,24.81,0,0,1,2.74-11.53,21.59,21.59,0,0,1,7.59-8.49,19.82,19.82,0,0,1,11-3.14,12.27,12.27,0,0,1,8.77,3.1,10.94,10.94,0,0,1,3.3,8.39,14.17,14.17,0,0,1-4.66,10.64q-4.68,4.44-15.89,7,2.25,4.13,7.64,4.13a11.11,11.11,0,0,0,6.36-1.7,30.14,30.14,0,0,0,5.8-5.75,3.26,3.26,0,0,1,2.55-1.34ZM889,412.11c-2.33,0-4.29,1.28-5.89,3.86a17.23,17.23,0,0,0-2.41,9.33v.18a21.92,21.92,0,0,0,8.77-3.77,7.29,7.29,0,0,0,3.21-5.83,3.79,3.79,0,0,0-1-2.74A3.55,3.55,0,0,0,889,412.11Z" transform="translate(-396.45 -360.47)"/><path class="a" d="M920.25,445.59q-4.14,0-6.27-2.16a7.71,7.71,0,0,1-2.12-5.65,8.74,8.74,0,0,1,2.41-6.46,9.05,9.05,0,0,1,6.74-2.43c2.77,0,4.85.65,6.27,1.93a7.34,7.34,0,0,1,2.12,5.7,8.93,8.93,0,0,1-2.45,6.6,9,9,0,0,1-6.7,2.47Z" transform="translate(-396.45 -360.47)"/><path class="b" d="M422.07,476.25a2.12,2.12,0,0,1,1.35.49A1.49,1.49,0,0,1,424,478a1.78,1.78,0,0,1-.09.53l-6,15.26a1.4,1.4,0,0,1-.63.71,2.19,2.19,0,0,1-1,.29,2.16,2.16,0,0,1-1-.26,1.82,1.82,0,0,1-.76-.77l-4.3-8.5-4.33,8.5a1.82,1.82,0,0,1-.76.77,2.16,2.16,0,0,1-1,.26,2.19,2.19,0,0,1-1-.29,1.4,1.4,0,0,1-.63-.71l-6-15.26a1.78,1.78,0,0,1-.09-.53,1.49,1.49,0,0,1,.62-1.22,2.22,2.22,0,0,1,2.47-.21,1.4,1.4,0,0,1,.67.75l4.51,11.89,3.94-8.21a1.91,1.91,0,0,1,.69-.75,1.88,1.88,0,0,1,1-.25,1.82,1.82,0,0,1,1,.25,2,2,0,0,1,.68.75l3.72,8.13,4.48-11.81a1.41,1.41,0,0,1,.68-.75A2.34,2.34,0,0,1,422.07,476.25Z" transform="translate(-396.45 -360.47)"/><path class="b" d="M446.66,491.72a2,2,0,0,1,1.32.46,1.4,1.4,0,0,1,.52,1.07,1.32,1.32,0,0,1-.52,1.08,2.08,2.08,0,0,1-1.32.42H436.51a1.91,1.91,0,0,1-1.31-.46,1.44,1.44,0,0,1-.53-1.15v-15.2a1.44,1.44,0,0,1,.53-1.15,2,2,0,0,1,1.31-.46h10.15a2,2,0,0,1,1.32.44,1.37,1.37,0,0,1,.52,1.11A1.3,1.3,0,0,1,448,479a2.09,2.09,0,0,1-1.33.41h-8.21v4.47h6.85a2,2,0,0,1,1.31.43,1.37,1.37,0,0,1,.53,1.12,1.3,1.3,0,0,1-.51,1.07,2.11,2.11,0,0,1-1.33.41h-6.85v4.86Z" transform="translate(-396.45 -360.47)"/><path class="b" d="M468.94,476.33a9.39,9.39,0,0,1,4.89,1.22,8.1,8.1,0,0,1,3.12,3.32,10.64,10.64,0,0,1,0,9.34,8.1,8.1,0,0,1-3.12,3.32,9.39,9.39,0,0,1-4.89,1.22h-7.23a1.91,1.91,0,0,1-1.32-.46,1.48,1.48,0,0,1-.53-1.15v-15.2a1.48,1.48,0,0,1,.53-1.15,2,2,0,0,1,1.32-.46Zm-.3,15.39a4.85,4.85,0,0,0,4.09-1.75,7.85,7.85,0,0,0,0-8.86,4.84,4.84,0,0,0-4.07-1.75h-5v12.36Z" transform="translate(-396.45 -360.47)"/><path class="b" d="M498.47,476.33a9.41,9.41,0,0,1,4.89,1.22,8.24,8.24,0,0,1,3.12,3.32,10.73,10.73,0,0,1,0,9.34,8.24,8.24,0,0,1-3.12,3.32,9.41,9.41,0,0,1-4.89,1.22h-7.24a1.93,1.93,0,0,1-1.32-.46,1.48,1.48,0,0,1-.53-1.15v-15.2a1.48,1.48,0,0,1,.53-1.15,2,2,0,0,1,1.32-.46Zm-.31,15.39a4.85,4.85,0,0,0,4.09-1.75,7.82,7.82,0,0,0,0-8.86,4.87,4.87,0,0,0-4.08-1.75h-5v12.36Z" transform="translate(-396.45 -360.47)"/><path class="b" d="M522.69,493.14a1.42,1.42,0,0,1-.57,1.15,2.08,2.08,0,0,1-1.34.46,2,2,0,0,1-1.34-.46,1.44,1.44,0,0,1-.53-1.15v-15.2a1.45,1.45,0,0,1,.54-1.15,2.13,2.13,0,0,1,1.39-.46,2,2,0,0,1,1.31.46,1.45,1.45,0,0,1,.54,1.15v15.2Z" transform="translate(-396.45 -360.47)"/><path class="b" d="M551.19,476.33a1.69,1.69,0,0,1,1.18.42,1.38,1.38,0,0,1,.45,1.06v15.33a1.48,1.48,0,0,1-.53,1.15,1.91,1.91,0,0,1-1.32.46,2.92,2.92,0,0,1-.83-.12,1.22,1.22,0,0,1-.59-.33L538.44,482v11.24a1.36,1.36,0,0,1-.47,1.05,1.77,1.77,0,0,1-1.23.42,1.67,1.67,0,0,1-1.18-.42,1.38,1.38,0,0,1-.45-1.05V477.94a1.44,1.44,0,0,1,.53-1.15,2,2,0,0,1,1.31-.46,2.55,2.55,0,0,1,.9.16,1.44,1.44,0,0,1,.65.42l11,12.21V477.81a1.37,1.37,0,0,1,.47-1.06,1.72,1.72,0,0,1,1.2-.42Z" transform="translate(-396.45 -360.47)"/><path class="b" d="M580.86,484.8a1.89,1.89,0,0,1,1.3.46,1.5,1.5,0,0,1,.52,1.15V492a1.56,1.56,0,0,1-.94,1.42,13.47,13.47,0,0,1-6.51,1.6,12.16,12.16,0,0,1-5.54-1.27,10.39,10.39,0,0,1-4-3.45,8.36,8.36,0,0,1,0-9.5,10.48,10.48,0,0,1,4-3.45,13.06,13.06,0,0,1,10.75-.22,1.65,1.65,0,0,1,.68.55,1.34,1.34,0,0,1,.23.74,1.51,1.51,0,0,1-.51,1.14,1.66,1.66,0,0,1-1.22.49,2.8,2.8,0,0,1-1-.21,9.76,9.76,0,0,0-3.39-.6,7.62,7.62,0,0,0-3.58.85,6.78,6.78,0,0,0-2.58,2.3,5.68,5.68,0,0,0,0,6.32,6.78,6.78,0,0,0,2.58,2.3,7.63,7.63,0,0,0,3.58.86,13.15,13.15,0,0,0,1.81-.14,10.84,10.84,0,0,0,1.7-.34V488h-2.85a2,2,0,0,1-1.31-.45,1.38,1.38,0,0,1-.53-1.13,1.41,1.41,0,0,1,.53-1.13,1.94,1.94,0,0,1,1.31-.44h5Z" transform="translate(-396.45 -360.47)"/><path class="b" d="M619.28,476.33a5.86,5.86,0,0,1,2.94.8,6.35,6.35,0,0,1,2.24,2.16,5.56,5.56,0,0,1,0,5.91,6.29,6.29,0,0,1-2.24,2.17,5.86,5.86,0,0,1-2.94.8H614v5a1.48,1.48,0,0,1-.49,1.15,1.78,1.78,0,0,1-1.27.45,1.71,1.71,0,0,1-1.24-.46,1.53,1.53,0,0,1-.48-1.15v-15.2a1.47,1.47,0,0,1,.52-1.15,2,2,0,0,1,1.32-.46Zm0,8.84a1.87,1.87,0,0,0,1.14-.42,3.14,3.14,0,0,0,.91-1.09,3.08,3.08,0,0,0-.91-3.89,1.86,1.86,0,0,0-1.14-.41H614v5.81Z" transform="translate(-396.45 -360.47)"/><path class="b" d="M652,476.33a2,2,0,0,1,1.36.45,1.44,1.44,0,0,1,.52,1.16v15.2a1.43,1.43,0,0,1-.55,1.15,2.06,2.06,0,0,1-1.39.46,1.92,1.92,0,0,1-1.3-.46,1.43,1.43,0,0,1-.55-1.15V487h-9.66v6.13a1.42,1.42,0,0,1-.57,1.15,2.08,2.08,0,0,1-1.34.46,2,2,0,0,1-1.34-.46,1.44,1.44,0,0,1-.53-1.15v-15.2a1.45,1.45,0,0,1,.54-1.15,2.12,2.12,0,0,1,1.39-.46,2,2,0,0,1,1.31.46,1.45,1.45,0,0,1,.54,1.15V484h9.66v-6.05a1.41,1.41,0,0,1,.58-1.15,2.09,2.09,0,0,1,1.33-.46Z" transform="translate(-396.45 -360.47)"/><path class="b" d="M685.81,485.54a9,9,0,0,1-1.33,4.78,9.58,9.58,0,0,1-3.68,3.43,11.71,11.71,0,0,1-10.57,0,9.46,9.46,0,0,1-3.66-3.43,9.31,9.31,0,0,1,0-9.56,9.46,9.46,0,0,1,3.66-3.43,11.71,11.71,0,0,1,10.57,0,9.58,9.58,0,0,1,3.68,3.43A9,9,0,0,1,685.81,485.54Zm-3.93,0a6.43,6.43,0,0,0-.82-3.2,6.11,6.11,0,0,0-2.27-2.27,6.86,6.86,0,0,0-6.56,0,5.82,5.82,0,0,0-2.24,2.27,6.84,6.84,0,0,0,0,6.42,5.84,5.84,0,0,0,2.24,2.28,6.51,6.51,0,0,0,3.29.83,6.33,6.33,0,0,0,3.27-.85,6.11,6.11,0,0,0,2.27-2.27A6.4,6.4,0,0,0,681.88,485.54Z" transform="translate(-396.45 -360.47)"/><path class="b" d="M710.49,476.33a2,2,0,0,1,1.33.42,1.38,1.38,0,0,1,.52,1.11,1.34,1.34,0,0,1-.52,1.09,2.09,2.09,0,0,1-1.33.41h-4.75v13.78a1.43,1.43,0,0,1-.58,1.15,2.18,2.18,0,0,1-1.42.46,2.09,2.09,0,0,1-1.4-.46,1.45,1.45,0,0,1-.54-1.15V479.36h-4.75a2.07,2.07,0,0,1-1.34-.42,1.37,1.37,0,0,1-.51-1.11,1.3,1.3,0,0,1,.53-1.08,2,2,0,0,1,1.32-.42Z" transform="translate(-396.45 -360.47)"/><path class="b" d="M742.28,485.54a9,9,0,0,1-1.33,4.78,9.51,9.51,0,0,1-3.68,3.43,11.69,11.69,0,0,1-10.56,0,9.42,9.42,0,0,1-3.67-3.43,9.31,9.31,0,0,1,0-9.56,9.42,9.42,0,0,1,3.67-3.43,11.69,11.69,0,0,1,10.56,0,9.51,9.51,0,0,1,3.68,3.43A9,9,0,0,1,742.28,485.54Zm-3.93,0a6.33,6.33,0,0,0-.82-3.2,6,6,0,0,0-2.27-2.27,6.86,6.86,0,0,0-6.56,0,6,6,0,0,0-2.24,2.27,6.84,6.84,0,0,0,0,6.42A6,6,0,0,0,728.7,491a6.51,6.51,0,0,0,3.29.83,6.33,6.33,0,0,0,3.27-.85,6,6,0,0,0,2.27-2.27A6.3,6.3,0,0,0,738.35,485.54Z" transform="translate(-396.45 -360.47)"/><path class="b" d="M769.26,484.8a1.94,1.94,0,0,1,1.31.46,1.49,1.49,0,0,1,.51,1.15V492a1.55,1.55,0,0,1-.94,1.42,13.47,13.47,0,0,1-6.51,1.6,12.19,12.19,0,0,1-5.54-1.27,10.39,10.39,0,0,1-4-3.45,8.36,8.36,0,0,1,0-9.5,10.48,10.48,0,0,1,4-3.45,12.19,12.19,0,0,1,5.54-1.27,12,12,0,0,1,5.21,1.05,1.65,1.65,0,0,1,.68.55,1.34,1.34,0,0,1,.23.74,1.54,1.54,0,0,1-.5,1.14A1.67,1.67,0,0,1,768,480a2.85,2.85,0,0,1-1-.21,9.76,9.76,0,0,0-3.39-.6,7.58,7.58,0,0,0-3.57.85,6.88,6.88,0,0,0-2.59,2.3,5.73,5.73,0,0,0,0,6.32,6.88,6.88,0,0,0,2.59,2.3,7.59,7.59,0,0,0,3.57.86,13.28,13.28,0,0,0,1.82-.14,10.93,10.93,0,0,0,1.69-.34V488H764.3a2,2,0,0,1-1.32-.45,1.41,1.41,0,0,1-.53-1.13,1.44,1.44,0,0,1,.53-1.13,2,2,0,0,1,1.32-.44h5Z" transform="translate(-396.45 -360.47)"/><path class="b" d="M799.21,492.17a1.75,1.75,0,0,1,.62.55,1.3,1.3,0,0,1,.23.71,1.25,1.25,0,0,1-.36.87,1.86,1.86,0,0,1-1.4.48,3.12,3.12,0,0,1-1.33-.29q-2.18-1.08-2.18-4.4a1.81,1.81,0,0,0-.71-1.5A3.34,3.34,0,0,0,792,488h-5.66v5.11a1.53,1.53,0,0,1-1.6,1.6,2.54,2.54,0,0,1-1.53-.46,1.38,1.38,0,0,1-.65-1.15v-15.2a1.44,1.44,0,0,1,.53-1.15,2,2,0,0,1,1.31-.46h8.73a6.27,6.27,0,0,1,3,.74,5.9,5.9,0,0,1,2.23,2,5.22,5.22,0,0,1,.83,2.89,4.59,4.59,0,0,1-.82,2.56,6,6,0,0,1-2.12,2,4,4,0,0,1,2.09,3.11,3.86,3.86,0,0,1,.09.81,7.37,7.37,0,0,0,.25,1.17.9.9,0,0,0,.54.54ZM793,485.33a1.58,1.58,0,0,0,1.06-.45,3.25,3.25,0,0,0,.85-1.19,4,4,0,0,0,.33-1.62,2.88,2.88,0,0,0-.33-1.36,2.71,2.71,0,0,0-.85-1,1.75,1.75,0,0,0-1.06-.37h-6.63v6Z" transform="translate(-396.45 -360.47)"/><path class="b" d="M827.89,492.7a1.56,1.56,0,0,1,.15.63,1.39,1.39,0,0,1-.52,1.12,1.75,1.75,0,0,1-1.18.43,1.68,1.68,0,0,1-1-.29,1.88,1.88,0,0,1-.68-.79l-1.58-3.18h-9l-1.58,3.21a1.66,1.66,0,0,1-.65.78,1.78,1.78,0,0,1-1,.27,1.73,1.73,0,0,1-1.2-.37,1.28,1.28,0,0,1-.41-1,1.61,1.61,0,0,1,.09-.5l7.54-15.73a1.94,1.94,0,0,1,.73-.82,1.77,1.77,0,0,1,1.09-.23,2,2,0,0,1,1,.27,1.66,1.66,0,0,1,.68.78l7.45,15.42Zm-12.33-5.11h6.06l-3.06-6.15-3,6.15Z" transform="translate(-396.45 -360.47)"/><path class="b" d="M847.24,476.33a5.79,5.79,0,0,1,2.93.8,6.35,6.35,0,0,1,2.24,2.16,5.56,5.56,0,0,1,0,5.91,6.29,6.29,0,0,1-2.24,2.17,5.79,5.79,0,0,1-2.93.8H842v5a1.48,1.48,0,0,1-.49,1.15,1.78,1.78,0,0,1-1.27.45,1.71,1.71,0,0,1-1.24-.46,1.53,1.53,0,0,1-.48-1.15v-15.2a1.44,1.44,0,0,1,.53-1.15,2,2,0,0,1,1.31-.46Zm0,8.84a1.87,1.87,0,0,0,1.13-.42,3.14,3.14,0,0,0,.91-1.09,3.08,3.08,0,0,0-.91-3.89,1.85,1.85,0,0,0-1.13-.41H842v5.81Z" transform="translate(-396.45 -360.47)"/><path class="b" d="M880,476.33a2,2,0,0,1,1.36.45,1.44,1.44,0,0,1,.52,1.16v15.2a1.46,1.46,0,0,1-.55,1.15,2.06,2.06,0,0,1-1.39.46,1.92,1.92,0,0,1-1.3-.46,1.43,1.43,0,0,1-.55-1.15V487H868.4v6.13a1.42,1.42,0,0,1-.57,1.15,2.07,2.07,0,0,1-1.33.46,2,2,0,0,1-1.35-.46,1.44,1.44,0,0,1-.53-1.15v-15.2a1.45,1.45,0,0,1,.54-1.15,2.14,2.14,0,0,1,1.4-.46,2,2,0,0,1,1.3.46,1.45,1.45,0,0,1,.54,1.15V484h9.66v-6.05a1.41,1.41,0,0,1,.58-1.15,2.11,2.11,0,0,1,1.33-.46Z" transform="translate(-396.45 -360.47)"/><path class="b" d="M906.25,491.72a2,2,0,0,1,1.32.46,1.41,1.41,0,0,1,.53,1.07,1.33,1.33,0,0,1-.53,1.08,2,2,0,0,1-1.32.42H896.11a1.91,1.91,0,0,1-1.32-.46,1.48,1.48,0,0,1-.53-1.15v-15.2a1.48,1.48,0,0,1,.53-1.15,2,2,0,0,1,1.32-.46h10.14a2,2,0,0,1,1.32.44,1.38,1.38,0,0,1,.53,1.11,1.29,1.29,0,0,1-.52,1.07,2.07,2.07,0,0,1-1.33.41h-8.2v4.47h6.84a2.09,2.09,0,0,1,1.32.43,1.4,1.4,0,0,1,.53,1.12,1.29,1.29,0,0,1-.52,1.07,2.09,2.09,0,0,1-1.33.41h-6.84v4.86Z" transform="translate(-396.45 -360.47)"/><path class="b" d="M936.08,492.17a1.75,1.75,0,0,1,.62.55,1.3,1.3,0,0,1,.23.71,1.22,1.22,0,0,1-.37.87,1.82,1.82,0,0,1-1.39.48,3.08,3.08,0,0,1-1.33-.29c-1.46-.72-2.18-2.19-2.18-4.4a1.81,1.81,0,0,0-.71-1.5,3.36,3.36,0,0,0-2.05-.55h-5.66v5.11a1.58,1.58,0,0,1-.44,1.15,1.55,1.55,0,0,1-1.17.45,2.53,2.53,0,0,1-1.52-.46,1.37,1.37,0,0,1-.66-1.15v-15.2a1.48,1.48,0,0,1,.53-1.15,2,2,0,0,1,1.32-.46H930a6.28,6.28,0,0,1,3,.74,5.8,5.8,0,0,1,2.22,2,5.15,5.15,0,0,1,.84,2.89,4.59,4.59,0,0,1-.82,2.56,6,6,0,0,1-2.12,2,4,4,0,0,1,2.09,3.11,3.86,3.86,0,0,1,.09.81,7.63,7.63,0,0,0,.24,1.17.94.94,0,0,0,.55.54Zm-6.21-6.84a1.6,1.6,0,0,0,1.06-.45,3.37,3.37,0,0,0,.85-1.19,4,4,0,0,0,.33-1.62,2.88,2.88,0,0,0-.33-1.36,2.81,2.81,0,0,0-.85-1,1.77,1.77,0,0,0-1.06-.37h-6.63v6Z" transform="translate(-396.45 -360.47)"/></svg>